<svg width="54" height="54" viewBox="0 0 54 54" fill="none" xmlns="http://www.w3.org/2000/svg">
<path d="M49.5 27C49.5 14.5733 39.4267 4.5 27 4.5C14.5733 4.5 4.5 14.5733 4.5 27C4.5 39.4267 14.5733 49.5 27 49.5" stroke="white" stroke-width="3.375" stroke-linecap="round" stroke-linejoin="round"/>
<path d="M29.2475 4.61426C29.2475 4.61426 35.9975 13.5018 35.9975 27.0018M24.7475 49.3893C24.7475 49.3893 17.9975 40.5018 17.9975 27.0018C17.9975 13.5018 24.7475 4.61426 24.7475 4.61426M5.91504 34.8768H26.9975M5.91504 19.1268H48.08" stroke="white" stroke-width="3.375" stroke-linecap="round" stroke-linejoin="round"/>
<path d="M49.2282 40.3103C50.3397 40.9943 50.2699 42.657 49.1269 42.7875L43.3512 43.4423L40.7614 48.6443C40.2484 49.677 38.6622 49.1708 38.3989 47.8928L35.5752 34.1318C35.3524 33.0518 36.3244 32.3723 37.2627 32.9505L49.2282 40.3103Z" stroke="white" stroke-width="3.375"/>
</svg>
