<svg width="59" height="59" viewBox="0 0 59 59" fill="none" xmlns="http://www.w3.org/2000/svg">
<path d="M16.1279 22.7529C18.3514 21.1534 21.0792 20.211 24.0273 20.2109C31.5064 20.2109 37.5693 26.2739 37.5693 33.7529C37.5693 41.232 31.5064 47.2949 24.0273 47.2949C21.079 47.2949 18.3515 46.3517 16.1279 44.752V47.2949H9.35645V11.1826H16.1279V22.7529ZM22.8975 25.8535C18.5349 25.8538 14.9981 29.3904 14.998 33.7529C14.998 38.1156 18.5349 41.6521 22.8975 41.6523C27.2603 41.6523 30.7979 38.1157 30.7979 33.7529C30.7978 29.3902 27.2602 25.8535 22.8975 25.8535Z" fill="#FCFCFC"/>
<rect x="45.4688" y="7.79688" width="3.38553" height="42.8834" fill="#FCFCFC"/>
</svg>
