<svg width="25" height="25" viewBox="0 0 25 25" fill="none" xmlns="http://www.w3.org/2000/svg">
<path d="M12.229 3.13208C12.2024 3.33436 12.187 3.54069 12.187 3.75024C12.187 4.10956 12.2296 4.45904 12.3062 4.79517C10.8296 4.84438 9.42354 5.45221 8.37549 6.50024C7.28156 7.59418 6.66654 9.0782 6.6665 10.6252V18.1252H18.3335V10.6252C18.3335 9.82912 18.169 9.05041 17.8618 8.33228C18.419 8.21285 18.9385 7.99371 19.4028 7.69556C19.7926 8.6137 20.0005 9.6086 20.0005 10.6252V18.1252H21.6665V19.7913H15.8335C15.8335 20.6753 15.482 21.5236 14.8569 22.1487C14.2319 22.7736 13.3843 23.1252 12.5005 23.1252C11.6164 23.1252 10.7682 22.7738 10.1431 22.1487C9.518 21.5236 9.1665 20.6753 9.1665 19.7913H3.3335V18.1252H5.00049V10.6252C5.00052 8.63617 5.79029 6.72802 7.19678 5.32153C8.53915 3.97918 10.3385 3.20048 12.229 3.13208ZM10.8335 19.7913C10.8335 20.2332 11.0093 20.6574 11.3218 20.97C11.6343 21.2825 12.0585 21.4582 12.5005 21.4583C12.9423 21.4582 13.3658 21.2824 13.6782 20.97C13.9908 20.6574 14.1665 20.2333 14.1665 19.7913H10.8335ZM13.7915 3.2395C15.3009 3.50334 16.705 4.22341 17.8032 5.32153C18.1143 5.63261 18.3931 5.96985 18.6421 6.32544C18.1622 6.65538 17.5865 6.85483 16.9644 6.87231C16.8566 6.74419 16.7438 6.61952 16.6245 6.50024C15.8936 5.76946 14.9887 5.25322 14.0073 4.99048C13.8426 4.61012 13.7495 4.19113 13.7495 3.75024C13.7495 3.57636 13.7642 3.40566 13.7915 3.2395Z" fill="#EFEFEF"/>
<circle cx="16.875" cy="3.75" r="3.125" fill="#EFEFEF"/>
</svg>
