<svg width="25" height="25" viewBox="0 0 25 25" fill="none" xmlns="http://www.w3.org/2000/svg">
<path d="M5.8335 18.9585V10.6252C5.8335 8.85705 6.53588 7.16136 7.78612 5.91112C9.03636 4.66088 10.7321 3.9585 12.5002 3.9585C14.2683 3.9585 15.964 4.66088 17.2142 5.91112C18.4645 7.16136 19.1668 8.85705 19.1668 10.6252V18.9585M3.3335 18.9585H21.6668M15.0002 18.9585V19.7918C15.0002 20.4549 14.7368 21.0908 14.2679 21.5596C13.7991 22.0284 13.1632 22.2918 12.5002 22.2918C11.8371 22.2918 11.2012 22.0284 10.7324 21.5596C10.2636 21.0908 10.0002 20.4549 10.0002 19.7918V18.9585" stroke="#EFEFEF" stroke-width="1.66667"/>
</svg>
