<svg width="30" height="30" viewBox="0 0 30 30" fill="none" xmlns="http://www.w3.org/2000/svg">
<path d="M19.221 14.8757C19.0495 15.0472 18.9462 15.2751 18.9303 15.5171L18.4716 22.489C18.4153 23.3468 17.3745 23.7383 16.7667 23.1305L6.86926 13.2331C6.26165 12.6253 6.65318 11.5846 7.51077 11.5282L14.4764 11.0702C14.7184 11.0542 14.9464 10.9509 15.1179 10.7794L20.7269 5.17041C21.1174 4.77988 21.7506 4.77988 22.1411 5.17041L24.8266 7.85589C25.2171 8.24642 25.2171 8.87958 24.8266 9.27011L19.221 14.8757Z" fill="white"/>
<rect x="19.2422" y="2.271" width="12" height="3" rx="1" transform="rotate(45 19.2422 2.271)" fill="white"/>
<path d="M14.293 15.707L6.51479 23.4852" stroke="white"/>
</svg>
